<mxfile host="65bd71144e">
    <diagram id="rF0--h0n4-irQkcCnG3Q" name="Page-1">
        <mxGraphModel dx="1496" dy="511" grid="1" gridSize="10" guides="1" tooltips="1" connect="1" arrows="1" fold="1" page="1" pageScale="1" pageWidth="827" pageHeight="1169" math="0" shadow="0">
            <root>
                <mxCell id="0"/>
                <mxCell id="1" parent="0"/>
                <mxCell id="12" style="edgeStyle=none;html=1;entryX=0;entryY=0.5;entryDx=0;entryDy=0;fontSize=14;" edge="1" parent="1" target="11">
                    <mxGeometry relative="1" as="geometry">
                        <mxPoint x="40" y="225" as="sourcePoint"/>
                    </mxGeometry>
                </mxCell>
                <mxCell id="5" value="Target" style="text;html=1;strokeColor=none;fillColor=none;align=center;verticalAlign=middle;whiteSpace=wrap;rounded=0;fontSize=14;fontStyle=1" vertex="1" parent="1">
                    <mxGeometry x="220" y="170" width="60" height="30" as="geometry"/>
                </mxCell>
                <mxCell id="6" value="+" style="text;html=1;strokeColor=none;fillColor=none;align=center;verticalAlign=middle;whiteSpace=wrap;rounded=0;fontSize=14;fontStyle=1" vertex="1" parent="1">
                    <mxGeometry x="300" y="170" width="60" height="30" as="geometry"/>
                </mxCell>
                <mxCell id="8" value="Strategy" style="text;html=1;strokeColor=none;fillColor=none;align=center;verticalAlign=middle;whiteSpace=wrap;rounded=0;fontSize=14;fontStyle=1" vertex="1" parent="1">
                    <mxGeometry x="380" y="170" width="60" height="30" as="geometry"/>
                </mxCell>
                <mxCell id="9" value="+" style="text;html=1;strokeColor=none;fillColor=none;align=center;verticalAlign=middle;whiteSpace=wrap;rounded=0;fontSize=14;fontStyle=1" vertex="1" parent="1">
                    <mxGeometry x="460" y="170" width="60" height="30" as="geometry"/>
                </mxCell>
                <mxCell id="10" value="Fallback Action" style="text;html=1;strokeColor=none;fillColor=none;align=center;verticalAlign=middle;whiteSpace=wrap;rounded=0;fontSize=14;fontStyle=1" vertex="1" parent="1">
                    <mxGeometry x="510" y="170" width="120" height="30" as="geometry"/>
                </mxCell>
                <mxCell id="11" value="=" style="rounded=0;whiteSpace=wrap;html=1;fontSize=14;" vertex="1" parent="1">
                    <mxGeometry x="110" y="210" width="80" height="30" as="geometry"/>
                </mxCell>
                <mxCell id="13" value="针对什么流量" style="rounded=0;whiteSpace=wrap;html=1;fontSize=14;" vertex="1" parent="1">
                    <mxGeometry x="210" y="210" width="90" height="30" as="geometry"/>
                </mxCell>
                <mxCell id="14" value="对应什么治理策略" style="rounded=0;whiteSpace=wrap;html=1;fontSize=14;" vertex="1" parent="1">
                    <mxGeometry x="349" y="210" width="130" height="30" as="geometry"/>
                </mxCell>
                <mxCell id="15" value="触发后行为" style="rounded=0;whiteSpace=wrap;html=1;fontSize=14;" vertex="1" parent="1">
                    <mxGeometry x="528" y="210" width="90" height="30" as="geometry"/>
                </mxCell>
                <mxCell id="16" value="按名称-resourceName&lt;br&gt;按HTTP请求类型&lt;br&gt;按特定Header&lt;br&gt;按流向-InOut" style="text;html=1;strokeColor=none;fillColor=none;align=left;verticalAlign=middle;whiteSpace=wrap;rounded=0;fontSize=12;" vertex="1" parent="1">
                    <mxGeometry x="210" y="250" width="130" height="70" as="geometry"/>
                </mxCell>
                <mxCell id="17" value="RULE" style="rounded=1;whiteSpace=wrap;html=1;fontSize=12;" vertex="1" parent="1">
                    <mxGeometry x="-80" y="195" width="120" height="60" as="geometry"/>
                </mxCell>
                <mxCell id="18" value="流量控制&lt;br&gt;流量平滑&lt;br&gt;并发请求控制&lt;br&gt;熔断器移除&lt;br&gt;自适应过载保护&lt;br&gt;离群实例" style="text;html=1;strokeColor=none;fillColor=none;align=left;verticalAlign=middle;whiteSpace=wrap;rounded=0;fontSize=12;" vertex="1" parent="1">
                    <mxGeometry x="350" y="250" width="130" height="100" as="geometry"/>
                </mxCell>
                <mxCell id="19" value="HTTP 返回指定错误码&lt;br&gt;RPC返回指定错误码&lt;br&gt;流量调度到其他节点" style="text;html=1;strokeColor=none;fillColor=none;align=left;verticalAlign=middle;whiteSpace=wrap;rounded=0;fontSize=12;" vertex="1" parent="1">
                    <mxGeometry x="528" y="250" width="130" height="60" as="geometry"/>
                </mxCell>
            </root>
        </mxGraphModel>
    </diagram>
</mxfile>